<?xml version="1.0" standalone="no"?>
<!DOCTYPE svg PUBLIC "-//W3C//DTD SVG 20010904//EN"
 "http://www.w3.org/TR/2001/REC-SVG-20010904/DTD/svg10.dtd">
<svg version="1.0" xmlns="http://www.w3.org/2000/svg"
 width="250.000000pt" height="250.000000pt" viewBox="0 0 250.000000 250.000000"
 preserveAspectRatio="xMidYMid meet">
<metadata>
Created by potrace 1.14, written by Peter Selinger 2001-2017
</metadata>
<g transform="translate(0.000000,250.000000) scale(0.100000,-0.100000)"
fill="#000000" stroke="none">
<path d="M961 2227 c-6 -8 -13 -29 -16 -48 l-6 -34 19 34 c19 33 19 33 25 10
10 -36 8 -79 -3 -79 -17 0 -11 -26 9 -44 18 -17 19 -16 26 33 11 77 -25 162
-54 128z"/>
<path d="M869 2148 c-2 -20 -2 -21 4 -55 6 -30 4 -32 -22 -31 -35 1 -47 -6
-54 -33 -7 -26 24 -59 56 -59 13 0 28 -5 35 -12 18 -18 48 14 37 39 -8 17 -8
17 -12 1 -5 -22 -43 -24 -43 -3 0 9 7 18 16 22 8 3 13 12 10 20 -4 10 -1 11
14 3 31 -17 70 -13 70 8 0 22 -19 42 -40 42 -8 0 -24 16 -34 35 -19 36 -35 45
-37 23z"/>
<path d="M1034 2126 c3 -10 1 -26 -6 -35 -8 -10 -4 -9 10 3 12 11 19 22 15 25
-5 4 -12 11 -17 16 -6 6 -7 3 -2 -9z"/>
<path d="M1094 2094 c-18 -14 -18 -14 6 -3 31 14 36 19 24 19 -6 0 -19 -7 -30
-16z"/>
<path d="M1460 2092 c0 -7 -3 -11 -7 -11 -18 3 -33 -2 -33 -10 0 -11 38 -2 46
11 3 5 3 12 0 15 -3 4 -6 1 -6 -5z"/>
<path d="M1484 2088 c-4 -6 -2 -14 4 -16 13 -4 4 -32 -10 -32 -6 0 -7 7 -4 16
5 12 1 14 -17 8 -12 -4 -30 -7 -39 -6 -10 0 -18 -4 -18 -9 0 -6 -6 -17 -14
-24 -12 -12 -16 -12 -26 1 -11 13 -15 13 -30 -1 -22 -20 -36 -20 -20 0 19 22
8 26 -24 10 -26 -14 -31 -13 -69 14 -49 34 -109 52 -88 27 7 -8 11 -21 8 -28
-3 -8 -6 -6 -6 5 -1 10 -6 15 -11 12 -6 -4 -8 -10 -5 -15 3 -4 -5 -10 -16 -13
-14 -4 -20 -11 -16 -21 4 -9 -1 -17 -14 -21 -10 -4 -17 -10 -15 -14 8 -12 -20
-95 -32 -99 -7 -2 -12 4 -12 13 0 9 4 14 9 11 11 -7 8 20 -3 31 -4 4 -7 3 -5
-2 1 -6 -3 -23 -9 -38 -15 -37 -15 -38 6 -30 9 3 -1 -6 -22 -21 -30 -21 -41
-25 -47 -14 -6 9 -9 9 -9 1 0 -6 7 -19 16 -28 16 -15 16 -18 -1 -33 -17 -16
-17 -16 -11 1 3 11 4 23 1 28 -7 10 -86 -19 -97 -35 -5 -8 -8 -7 -8 1 0 6 16
20 36 32 19 12 32 26 29 31 -4 6 3 32 16 58 13 26 22 51 21 55 -2 5 1 6 6 3 5
-3 16 4 25 15 19 22 17 23 -17 8 -13 -6 -27 -21 -30 -34 -8 -32 -54 -78 -72
-71 -8 3 -13 2 -10 -3 3 -4 -4 -18 -15 -30 -16 -17 -20 -31 -15 -54 5 -32 5
-32 -11 -9 -16 23 -43 30 -43 12 0 -6 -13 -1 -28 10 -34 25 -142 34 -149 13
-3 -7 2 -13 11 -13 19 0 22 -20 4 -20 -7 0 -21 -12 -31 -25 -14 -20 -15 -24
-2 -19 8 3 15 2 15 -4 0 -20 -30 -21 -41 -1 -10 19 -12 19 -28 5 -18 -16 -25
-50 -8 -39 14 9 96 10 91 1 -3 -4 -14 -8 -24 -8 -13 0 -17 -5 -14 -15 4 -10 0
-15 -14 -15 -11 0 -25 -7 -32 -15 -10 -13 -9 -15 10 -15 l22 0 -23 -20 c-15
-12 -18 -18 -7 -14 15 5 17 -1 9 -34 -2 -6 -28 23 -32 36 -3 9 -11 7 -27 -8
-44 -41 -20 -162 34 -173 16 -3 34 -1 41 5 7 5 22 7 33 3 15 -5 29 0 43 13 23
20 64 23 75 5 7 -10 67 -34 74 -29 1 2 18 6 36 9 30 6 32 5 32 -23 0 -32 18
-50 30 -30 6 9 12 9 30 0 14 -7 26 -8 32 -2 11 11 108 3 126 -11 7 -5 15 -7
19 -3 4 3 17 -3 29 -15 14 -13 27 -18 36 -13 31 20 82 13 130 -16 53 -33 64
-25 19 12 l-28 24 34 23 c28 18 34 28 30 47 -3 20 3 27 40 45 42 21 45 21 64
3 19 -17 21 -17 48 -1 25 15 30 15 41 2 7 -8 21 -15 30 -15 10 0 33 -18 50
-40 17 -22 36 -38 40 -35 5 3 12 1 15 -5 5 -8 15 -6 31 5 13 8 24 11 24 5 0
-21 16 -9 27 21 7 16 18 29 25 28 7 -1 20 -1 28 0 13 1 13 3 -1 14 -9 7 -22
39 -29 72 -7 33 -17 66 -22 73 -8 9 -3 12 18 12 21 0 25 3 15 9 -11 7 -10 11
7 20 34 18 54 14 47 -9 -5 -15 3 -28 27 -50 35 -33 48 -36 66 -18 9 9 16 7 31
-6 34 -31 69 12 46 57 -9 18 -10 27 -3 27 6 0 20 7 30 16 12 12 22 14 30 7 18
-14 62 -1 66 19 5 24 -36 75 -70 87 -19 7 -28 7 -28 0 0 -6 -4 -8 -9 -5 -5 3
-11 -8 -15 -25 -8 -40 -41 -37 -41 3 0 14 -10 38 -23 51 -14 15 -18 24 -10 24
7 -1 13 3 13 8 0 6 -11 10 -23 10 -13 1 -28 8 -33 18 -8 13 -3 19 19 31 15 8
34 27 41 43 12 28 12 28 -25 -7 -26 -24 -35 -29 -30 -16 7 19 6 19 -13 2 -19
-17 -21 -16 -65 29 -40 42 -75 56 -69 27 1 -5 -6 -8 -16 -5 -15 4 -18 0 -14
-21 4 -21 2 -25 -11 -20 -10 4 -15 13 -12 20 3 8 1 14 -4 14 -15 0 -12 -26 5
-40 17 -14 20 -46 5 -55 -7 -4 -9 3 -5 22 6 27 6 27 -9 9 -9 -11 -16 -23 -16
-28 0 -4 -7 -8 -15 -8 -8 0 -15 -5 -15 -11 0 -5 5 -7 12 -3 7 4 8 3 4 -5 -6
-9 -11 -9 -24 1 -12 10 -14 10 -8 1 4 -7 3 -13 -3 -13 -6 0 -8 -8 -5 -17 3
-10 -5 -1 -16 21 l-22 39 25 23 c14 12 28 20 33 16 4 -4 4 -2 0 5 -3 6 2 16
11 22 10 6 14 11 9 11 -5 0 -2 7 5 17 13 15 12 15 -8 4 -25 -13 -26 -12 -23
40 1 30 -4 40 -27 57 -15 11 -32 20 -38 21 -5 1 -10 4 -10 9 0 12 -16 32 -25
32 -5 0 -12 -5 -16 -12z m-37 -65 c-9 -9 -19 -14 -23 -11 -10 10 6 28 24 28
15 0 15 -1 -1 -17z m73 13 c0 -3 -4 -8 -10 -11 -5 -3 -10 -1 -10 4 0 6 5 11
10 11 6 0 10 -2 10 -4z m-53 -43 c-9 -9 -20 -13 -24 -9 -4 4 1 14 11 22 25 18
35 8 13 -13z m-67 -1 c0 -13 -12 -22 -22 -16 -10 6 -1 24 13 24 5 0 9 -4 9 -8z
m32 -44 c-6 -6 -15 -8 -19 -4 -4 4 -1 11 7 16 19 12 27 3 12 -12z m-25 -35
c-1 -13 -11 -19 -40 -21 -22 -1 -48 -7 -58 -13 -24 -12 -25 -1 -1 18 9 8 11
12 5 8 -7 -3 -13 -2 -13 4 0 13 19 19 67 20 34 1 42 -2 40 -16z m-73 -54 c-31
-12 -39 -10 -19 5 11 8 24 12 29 8 5 -3 1 -9 -10 -13z m156 1 c0 -5 -7 -7 -15
-4 -8 4 -22 1 -30 -6 -13 -10 -13 -14 0 -27 22 -22 18 -36 -19 -59 l-34 -22
-12 23 c-17 32 -5 72 28 89 31 17 82 21 82 6z m45 -40 c4 -14 4 -22 0 -18 -5
4 -14 3 -22 -3 -9 -8 -13 -8 -13 -1 0 6 -7 12 -15 14 -12 2 -11 6 6 16 19 12
21 12 16 -2 -4 -9 -1 -16 4 -16 7 0 9 11 6 26 -6 31 8 19 18 -16z m-200 10
c-3 -5 -18 -9 -33 -9 l-27 1 30 8 c17 4 31 8 33 9 2 0 0 -3 -3 -9z m-136 -22
c-9 -16 -14 -19 -17 -9 -2 7 2 17 9 22 20 13 21 11 8 -13z m45 7 c-25 -19 -35
-19 -28 0 4 8 16 15 27 15 20 0 20 0 1 -15z m-63 -45 c6 0 7 -5 3 -11 -5 -8 1
-10 18 -6 23 6 70 -15 58 -25 -23 -19 -89 -45 -97 -37 -5 5 -26 11 -47 13 -30
4 -37 2 -32 -9 5 -14 -6 -20 -27 -16 -5 1 -6 -3 -3 -8 4 -5 2 -12 -3 -15 -5
-3 -12 2 -15 11 -8 21 16 42 57 50 18 4 32 15 38 32 6 14 16 32 22 40 10 12
12 12 15 -2 2 -10 8 -17 13 -17z m-281 -5 c-7 -9 -15 -13 -19 -10 -3 3 1 10 9
15 21 14 24 12 10 -5z m762 -17 c-20 -20 -13 -27 22 -21 18 3 36 1 40 -5 4 -6
-2 -8 -15 -5 -17 5 -29 -3 -51 -28 -27 -33 -29 -33 -43 -15 -8 10 -12 24 -9
30 3 6 -1 3 -9 -7 -14 -16 -15 -16 -31 7 -18 29 -6 42 23 26 13 -7 22 -7 26 0
4 6 10 8 15 5 4 -3 13 2 20 10 7 8 15 15 18 15 3 0 1 -5 -6 -12z m249 -48 c-4
-11 -7 -8 -12 10 -12 42 -9 56 4 30 8 -14 11 -32 8 -40z m-1051 40 c0 -5 -4
-10 -10 -10 -5 0 -10 5 -10 10 0 6 5 10 10 10 6 0 10 -4 10 -10z m60 -10 c0
-5 -5 -10 -11 -10 -5 0 -7 5 -4 10 3 6 8 10 11 10 2 0 4 -4 4 -10z m583 3
c-23 -3 -33 -10 -33 -21 0 -10 -7 -28 -16 -41 -12 -17 -22 -21 -40 -17 -28 7
-29 4 -9 -34 13 -25 19 -28 48 -23 24 3 39 -1 57 -16 24 -20 24 -20 3 -14 -18
4 -33 -5 -65 -36 -48 -46 -55 -48 -74 -23 -12 15 -14 13 -15 -18 l-1 -35 -7
30 c-4 21 -1 35 11 47 30 30 17 112 -19 125 -24 9 -32 22 -26 44 6 21 52 26
70 8 9 -9 19 -6 39 10 18 15 39 21 68 19 37 -1 38 -2 9 -5z m267 3 c0 -3 -4
-8 -10 -11 -5 -3 -10 -1 -10 4 0 6 5 11 10 11 6 0 10 -2 10 -4z m287 -12 c-3
-3 -12 -4 -19 -1 -8 3 -5 6 6 6 11 1 17 -2 13 -5z m-1237 -23 c0 -6 -4 -13
-10 -16 -5 -3 -10 1 -10 9 0 9 5 16 10 16 6 0 10 -4 10 -9z m70 -5 c0 -3 -4
-8 -10 -11 -5 -3 -10 -1 -10 4 0 6 5 11 10 11 6 0 10 -2 10 -4z m130 -36 c0
-11 -6 -20 -13 -20 -8 0 -23 -10 -34 -22 -24 -27 -36 -68 -20 -68 7 0 -1 -11
-17 -25 -17 -15 -23 -25 -15 -25 8 0 4 -8 -11 -20 -14 -11 -19 -20 -12 -20 10
0 10 -4 0 -20 -7 -11 -17 -20 -22 -20 -4 0 -3 7 4 15 7 9 10 19 6 22 -4 4 -11
1 -16 -7 -6 -8 -10 -10 -10 -5 0 6 -4 3 -10 -5 -17 -27 -20 -3 -4 35 8 21 14
45 11 54 -3 12 4 16 31 16 31 0 36 4 43 29 7 23 74 106 86 106 2 0 3 -9 3 -20z
m280 5 c0 -8 9 -20 20 -27 11 -7 20 -17 20 -22 0 -4 -6 -3 -14 3 -17 14 -49 3
-42 -14 3 -8 -2 -11 -15 -8 -10 3 -26 0 -34 -7 -19 -16 -22 -12 -25 20 -4 42
-1 48 28 58 40 15 62 14 62 -3z m634 -27 c-3 -5 -16 -3 -30 6 -30 20 -34 20
-34 -3 0 -10 -7 -25 -16 -32 -14 -11 -18 -10 -30 6 -17 23 -7 35 39 51 25 9
37 8 54 -4 13 -8 20 -18 17 -24z m-1129 22 c3 -5 1 -10 -4 -10 -6 0 -11 5 -11
10 0 6 2 10 4 10 3 0 8 -4 11 -10z m195 -49 c0 -5 -7 -14 -15 -21 -12 -10 -15
-10 -15 2 0 8 3 18 7 21 9 10 23 9 23 -2z m-430 -21 c0 -5 -5 -10 -11 -10 -5
0 -7 5 -4 10 3 6 8 10 11 10 2 0 4 -4 4 -10z m245 -6 c20 -15 20 -15 -5 -34
-30 -24 -41 -25 -34 -5 7 17 3 18 -21 9 -13 -5 -14 -8 -3 -15 10 -6 10 -11 0
-21 -9 -9 -12 -9 -12 2 0 9 -9 5 -25 -10 -23 -21 -28 -23 -47 -11 -19 12 -20
11 -15 -8 3 -13 0 -21 -8 -21 -8 0 -14 16 -17 40 -3 35 -1 40 18 40 11 0 29 9
39 20 21 23 40 26 31 5 -4 -12 4 -14 39 -13 50 3 53 5 28 24 -15 11 -15 13 -3
13 8 0 24 -6 35 -15z m377 -6 c-7 -7 -12 -8 -12 -2 0 14 12 26 19 19 2 -3 -1
-11 -7 -17z m-182 8 c0 -3 -4 -8 -10 -11 -5 -3 -10 -1 -10 4 0 6 5 11 10 11 6
0 10 -2 10 -4z m612 -12 c-13 -9 -21 -22 -18 -29 2 -7 -1 -16 -9 -19 -9 -3
-12 0 -8 10 3 7 0 14 -6 14 -6 0 -11 -9 -11 -19 0 -11 -6 -23 -12 -27 -7 -4
-10 -4 -6 0 4 5 3 19 -2 32 -8 20 -6 24 8 24 9 1 28 7 42 15 34 20 50 19 22
-1z m48 6 c0 -5 -5 -10 -11 -10 -5 0 -7 5 -4 10 3 6 8 10 11 10 2 0 4 -4 4
-10z m-1191 -28 c7 -14 6 -19 -4 -19 -7 0 -11 6 -8 14 4 9 0 11 -13 6 -12 -4
-15 -3 -10 5 10 17 24 15 35 -6z m691 14 c0 -3 -4 -8 -10 -11 -5 -3 -10 -1
-10 4 0 6 5 11 10 11 6 0 10 -2 10 -4z m74 -11 c-4 -8 -8 -15 -10 -15 -2 0 -4
7 -4 15 0 8 4 15 10 15 5 0 7 -7 4 -15z m-154 -15 c0 -5 -5 -10 -11 -10 -5 0
-7 5 -4 10 3 6 8 10 11 10 2 0 4 -4 4 -10z m22 -22 c-7 -7 -12 -8 -12 -2 0 14
12 26 19 19 2 -3 -1 -11 -7 -17z m62 -2 c-3 -9 -10 -13 -16 -10 -5 3 -4 12 3
20 15 18 22 13 13 -10z m-194 10 c0 -2 -7 -7 -16 -10 -8 -3 -12 -2 -9 4 6 10
25 14 25 6z m90 -21 c0 -9 -6 -12 -16 -8 -13 5 -13 7 -2 14 17 11 18 11 18 -6z
m43 -30 c-3 -9 -8 -14 -10 -11 -3 3 -2 9 2 15 9 16 15 13 8 -4z m69 -7 c-7 -7
-12 -8 -12 -2 0 14 12 26 19 19 2 -3 -1 -11 -7 -17z m-102 -23 c-7 -9 -15 -13
-17 -11 -7 7 7 26 19 26 6 0 6 -6 -2 -15z m-220 -35 c0 -5 -2 -10 -4 -10 -3 0
-8 5 -11 10 -3 6 -1 10 4 10 6 0 11 -4 11 -10z"/>
<path d="M1346 1908 c3 -4 11 -5 19 -1 21 7 19 12 -4 10 -11 0 -18 -5 -15 -9z"/>
<path d="M1150 1755 c-11 -13 -10 -14 4 -9 9 3 16 10 16 15 0 13 -6 11 -20 -6z"/>
<path d="M881 1494 c0 -11 3 -14 6 -6 3 7 2 16 -1 19 -3 4 -6 -2 -5 -13z"/>
<path d="M1025 2060 c-3 -5 -2 -10 4 -10 5 0 13 5 16 10 3 6 2 10 -4 10 -5 0
-13 -4 -16 -10z"/>
<path d="M1830 1980 c-6 -11 -8 -20 -6 -20 3 0 10 9 16 20 6 11 8 20 6 20 -3
0 -10 -9 -16 -20z"/>
<path d="M695 1940 c-6 -10 1 -14 43 -23 15 -4 22 0 22 10 0 8 -7 13 -17 11
-10 -1 -23 1 -30 5 -6 4 -14 3 -18 -3z"/>
<path d="M816 1930 c-34 -15 -36 -19 -21 -27 23 -13 48 -6 63 17 17 27 2 31
-42 10z"/>
<path d="M1849 1933 c-13 -16 -12 -17 4 -4 9 7 17 15 17 17 0 8 -8 3 -21 -13z"/>
<path d="M561 1917 c-7 -9 -11 -24 -9 -34 3 -16 5 -15 17 5 15 29 10 50 -8 29z"/>
<path d="M2009 1898 c-7 -13 -19 -34 -27 -48 -11 -20 -8 -18 17 8 17 18 31 39
31 47 0 21 -7 19 -21 -7z"/>
<path d="M1830 1899 c0 -5 5 -7 10 -4 6 3 10 8 10 11 0 2 -4 4 -10 4 -5 0 -10
-5 -10 -11z"/>
<path d="M715 1891 c-4 -7 5 -9 24 -5 28 6 32 3 44 -25 16 -37 28 -32 18 7 -6
22 -14 28 -43 30 -20 2 -39 -2 -43 -7z"/>
<path d="M456 1847 c26 -29 64 -45 64 -26 0 9 -39 56 -40 47 0 -4 -12 -3 -26
2 l-26 10 28 -33z"/>
<path d="M1615 1850 c-3 -5 -1 -10 4 -10 6 0 11 5 11 10 0 6 -2 10 -4 10 -3 0
-8 -4 -11 -10z"/>
<path d="M410 1832 c0 -5 11 -19 24 -31 l23 -22 -1 23 c0 13 -5 26 -11 30 -14
10 -35 10 -35 0z"/>
<path d="M446 1646 c-18 -38 -19 -46 -8 -46 11 0 41 69 32 75 -4 3 -15 -10
-24 -29z"/>
<path d="M426 1655 c-9 -26 -7 -32 5 -12 6 10 9 21 6 23 -2 3 -7 -2 -11 -11z"/>
<path d="M346 1629 c-25 -20 -27 -39 -4 -39 6 0 8 3 5 7 -4 3 3 17 15 30 27
29 19 30 -16 2z"/>
<path d="M1305 1335 c1 -15 8 -32 14 -38 10 -9 12 -4 9 22 -2 19 -8 36 -15 38
-7 3 -10 -6 -8 -22z"/>
<path d="M1583 1164 c-7 -3 -9 -12 -6 -20 3 -8 1 -14 -5 -14 -6 0 -12 5 -14
11 -2 7 -9 5 -17 -5 -12 -14 -12 -16 3 -10 10 4 16 1 16 -7 0 -10 3 -10 11 -2
6 6 17 9 24 6 8 -2 23 1 35 7 37 20 -5 51 -47 34z"/>
<path d="M733 1153 c9 -2 25 -2 35 0 9 3 1 5 -18 5 -19 0 -27 -2 -17 -5z"/>
<path d="M1082 1135 c-11 -14 -27 -25 -35 -25 -9 0 -19 -5 -23 -11 -4 -8 1 -9
17 -5 13 3 19 3 12 0 -7 -3 -9 -13 -6 -22 4 -15 3 -15 -6 -2 -7 10 -11 11 -11
3 0 -7 -11 -13 -25 -13 -47 0 -25 -16 38 -28 114 -21 157 -24 234 -17 54 5 72
10 62 17 -10 7 -4 8 19 5 18 -2 35 0 38 5 3 4 18 8 33 8 32 0 61 24 39 33 -8
4 -4 8 10 13 29 8 11 24 -30 24 -14 0 -39 7 -55 16 -28 16 -30 16 -71 -10 -57
-36 -93 -42 -133 -22 -18 9 -40 16 -51 16 -10 0 -18 6 -18 14 0 26 -18 27 -38
1z"/>
<path d="M1516 1107 c3 -10 9 -15 12 -12 3 3 0 11 -7 18 -10 9 -11 8 -5 -6z"/>
<path d="M930 1060 c8 -5 22 -9 30 -9 10 0 8 3 -5 9 -27 12 -43 12 -25 0z"/>
<path d="M2207 994 c-3 -10 -9 -76 -12 -146 l-7 -128 -34 0 c-28 0 -38 -6 -54
-32 -11 -18 -20 -40 -20 -50 0 -24 -35 -11 -49 18 -13 29 -52 31 -126 5 -56
-20 -75 -45 -75 -103 0 -29 -6 -41 -25 -54 -23 -15 -33 -15 -78 -5 -49 12 -55
11 -104 -13 -63 -31 -172 -37 -193 -11 -7 8 -20 15 -29 15 -9 0 -22 5 -28 11
-9 9 -18 8 -37 -5 -15 -9 -26 -14 -26 -10 0 3 -12 -2 -27 -12 -25 -17 -45 -19
-168 -16 -76 1 -147 -1 -157 -4 -30 -9 -50 -64 -38 -104 6 -19 10 -36 10 -37
0 -2 -8 -3 -19 -3 -29 0 -42 24 -40 73 2 27 -3 52 -11 62 -11 13 -11 18 -1 24
15 10 -92 36 -114 28 -9 -4 -15 -12 -13 -19 2 -7 -8 -24 -21 -37 -16 -16 -20
-26 -13 -29 9 -3 8 -9 -3 -25 -11 -16 -12 -24 -2 -36 10 -14 10 -14 -5 -3 -17
13 -18 28 -5 50 5 7 3 12 -3 12 -8 0 -7 6 1 21 9 18 7 26 -8 48 -23 30 -73 42
-73 16 0 -25 -30 -76 -40 -70 -7 4 -6 13 0 25 15 27 12 32 -9 20 -26 -13 -34
9 -12 33 15 18 14 20 -5 36 -13 10 -24 34 -28 62 -7 48 -46 122 -53 101 -3 -6
-10 -9 -16 -5 -17 11 -39 13 -61 7 -15 -5 -17 -13 -13 -39 4 -23 1 -35 -8 -39
-10 -3 -13 4 -13 25 1 26 -25 69 -42 69 -4 0 -19 -11 -34 -25 -29 -27 -30 -27
-16 9 6 16 17 26 29 26 16 0 19 6 18 35 -2 29 -5 34 -21 29 -12 -4 -16 -2 -12
5 4 6 14 11 22 11 10 0 14 7 12 20 -2 12 -6 21 -10 20 -5 0 -19 0 -33 0 -18 0
-31 -10 -45 -32 -20 -34 -21 -85 -2 -81 6 2 9 -4 6 -12 -4 -9 -1 -21 5 -29 6
-7 8 -16 4 -19 -3 -4 -1 -7 5 -7 7 0 12 -7 12 -15 0 -8 5 -15 11 -15 5 0 9 -8
8 -17 -3 -39 0 -46 16 -33 18 15 20 -1 2 -19 -10 -10 -8 -15 7 -27 11 -8 14
-14 8 -14 -7 0 -12 -4 -12 -9 0 -14 30 -42 40 -36 4 3 10 -2 14 -10 3 -9 19
-15 41 -15 28 0 35 4 35 19 0 30 48 81 73 77 33 -5 32 -23 -3 -53 -23 -19 -31
-32 -27 -49 2 -13 -1 -25 -7 -27 -9 -3 43 -37 57 -37 2 0 2 13 -1 30 -3 23 0
30 12 30 15 0 20 -11 17 -38 -1 -7 8 -26 19 -42 23 -32 55 -39 91 -20 15 9 21
7 25 -5 3 -8 12 -15 19 -15 7 0 18 -7 25 -15 16 -19 96 -19 130 -1 22 13 27
12 53 -10 37 -31 78 -31 115 1 30 25 31 25 37 6 22 -71 154 -81 184 -15 10 23
13 24 27 10 24 -25 45 -33 101 -41 36 -5 59 -3 78 7 21 11 39 12 81 5 47 -8
59 -6 90 12 24 15 53 21 92 21 51 0 142 20 227 49 17 6 52 16 78 22 36 9 51
18 58 36 4 12 17 23 27 23 10 0 31 14 47 30 22 23 38 30 66 30 32 0 42 6 66
37 15 20 29 50 30 67 8 110 11 134 22 154 14 26 6 65 -19 87 -15 14 -17 22 -8
46 8 23 6 35 -9 61 -11 18 -26 33 -34 33 -8 0 -19 6 -25 14 -10 13 -12 12 -17
-5z m-1964 -219 c-3 -9 -8 -14 -10 -11 -3 3 -2 9 2 15 9 16 15 13 8 -4z m170
-87 c16 -12 16 -14 -3 -26 -11 -7 -20 -8 -20 -3 0 5 -3 16 -6 25 -7 19 6 21
29 4z m-100 -48 c-9 -16 -21 -30 -26 -30 -9 0 -1 17 21 43 23 26 25 21 5 -13z
m7 -39 c-5 -19 -4 -33 3 -40 8 -8 8 -11 0 -11 -18 0 -25 37 -13 60 15 29 20
25 10 -9z m55 -69 c-3 -3 -11 0 -18 7 -9 10 -8 11 6 5 10 -3 15 -9 12 -12z
m-39 -29 c-7 -7 -26 7 -26 19 0 6 6 6 15 -2 9 -7 13 -15 11 -17z m473 -26 c-2
-1 -13 -9 -24 -17 -19 -14 -19 -14 -6 3 7 9 18 17 24 17 6 0 8 -1 6 -3z m483
-39 c-7 -7 -12 -8 -12 -2 0 14 12 26 19 19 2 -3 -1 -11 -7 -17z m-532 8 c0 -3
-4 -8 -10 -11 -5 -3 -10 -1 -10 4 0 6 5 11 10 11 6 0 10 -2 10 -4z m283 -8
c16 2 35 -2 43 -8 17 -15 6 -43 -13 -35 -10 3 -13 1 -10 -9 4 -10 1 -13 -8
-10 -8 3 -11 13 -8 21 4 10 2 14 -4 10 -5 -4 -21 5 -34 20 -13 14 -17 22 -9
18 8 -5 27 -8 43 -7z m-310 -28 c3 -11 1 -20 -4 -20 -5 0 -9 -10 -9 -22 0 -18
-2 -20 -10 -8 -5 8 -5 19 0 25 5 6 6 22 3 35 -4 15 -2 21 4 17 6 -4 13 -16 16
-27z m801 16 c-10 -8 -21 -12 -24 -10 -5 6 21 24 34 24 6 0 1 -6 -10 -14z m62
-11 c13 -21 14 -30 5 -48 -11 -22 -11 -22 -7 3 5 25 -16 65 -27 53 -4 -3 -7
-1 -7 5 0 20 19 13 36 -13z m-21 -65 c3 -5 1 -10 -4 -10 -6 0 -11 5 -11 10 0
6 2 10 4 10 3 0 8 -4 11 -10z"/>
</g>
</svg>
